<svg width="60" height="60" viewBox="0 0 60 60" fill="none" xmlns="http://www.w3.org/2000/svg">
<g clip-path="url(#clip0_282_40)">
<path d="M54.2592 15.5758C56.5312 19.3006 56.1065 24.3989 53.2195 29.7859C50.3453 35.149 45.1109 40.6124 38.1682 44.8472C31.2255 49.0821 23.9724 51.2359 17.8885 51.3371C11.7775 51.4387 7.05001 49.4831 4.77798 45.7583C2.50594 42.0335 2.93061 36.9352 5.81764 31.5482C8.69188 26.1851 13.9263 20.7217 20.869 16.4869C27.8117 12.252 35.0648 10.0982 41.1487 9.997C47.2597 9.89538 51.9871 11.851 54.2592 15.5758Z" stroke="#3A3088" stroke-width="2"/>
<path d="M30 59C25.5187 59 21.2908 55.9674 18.1296 50.6987C14.9803 45.4499 13 38.1342 13 30C13 21.8658 14.9803 14.5501 18.1296 9.30129C21.2908 4.03258 25.5187 0.999999 30 0.999999C34.4813 0.999999 38.7092 4.03258 41.8704 9.30129C45.0197 14.5501 47 21.8658 47 30C47 38.1342 45.0197 45.4499 41.8704 50.6987C38.7092 55.9674 34.4813 59 30 59Z" stroke="#3A3088" stroke-width="2"/>
<path d="M54.0247 46.6322C51.6712 50.3061 46.9019 52.1572 40.7946 51.9211C34.7144 51.686 27.5104 49.3731 20.6626 44.9864C13.8149 40.5997 8.70199 35.0224 5.94651 29.5974C3.17877 24.1481 2.86643 19.0417 5.21991 15.3678C7.57339 11.6939 12.3428 9.84283 18.45 10.0789C24.5302 10.314 31.7342 12.627 38.582 17.0137C45.4298 21.4004 50.5426 26.9776 53.2981 32.4027C56.0658 37.8519 56.3782 42.9584 54.0247 46.6322Z" stroke="#3A3088" stroke-width="2"/>
<path d="M21 29.6385V24.5775L26.4566 19H37V41H21V30.9812" stroke="#3A3088" stroke-width="2"/>
<path d="M24 29H34" stroke="#3A3088" stroke-width="2"/>
<path d="M24 37H34" stroke="#3A3088" stroke-width="2"/>
<path d="M24 33H29" stroke="#3A3088" stroke-width="2"/>
<path d="M31 33H34" stroke="#3A3088" stroke-width="2"/>
<circle cx="30" cy="24" r="1" fill="#3A3088"/>
<circle cx="33" cy="24" r="1" fill="#3A3088"/>
<circle cx="9.5" cy="11.5" r="2.5" fill="white" stroke="#3A3088" stroke-width="2"/>
<circle cx="35" cy="3" r="2" fill="white" stroke="#3A3088" stroke-width="2"/>
<circle cx="9" cy="50" r="2" fill="white" stroke="#3A3088" stroke-width="2"/>
</g>
<defs>
<clipPath id="clip0_282_40">
<rect width="60" height="60" fill="white"/>
</clipPath>
</defs>
</svg>
