<svg width="60" height="60" viewBox="0 0 60 60" fill="none" xmlns="http://www.w3.org/2000/svg">
<g clip-path="url(#clip0_282_38)">
<path d="M39.8535 3.33636L42.0808 2" stroke="#3A3088" stroke-width="2" stroke-linecap="round"/>
<path d="M23.373 3.33636L20.7003 2" stroke="#3A3088" stroke-width="2" stroke-linecap="round"/>
<path d="M41.2484 8.72945L44.0585 8.68221" stroke="#3A3088" stroke-width="2" stroke-linecap="round"/>
<path d="M39.6193 14.027L41.9833 15.5469" stroke="#3A3088" stroke-width="2" stroke-linecap="round"/>
<path d="M23.5272 14.027L21.1631 15.5469" stroke="#3A3088" stroke-width="2" stroke-linecap="round"/>
<path d="M18.8129 8.72945L21.6229 8.68221" stroke="#3A3088" stroke-width="2" stroke-linecap="round"/>
<path d="M39.8535 26.4999L46.4864 14.5963L54.5535 10.0181V19.0831" stroke="#3A3088" stroke-width="2" stroke-linecap="round"/>
<path d="M44.3105 27.3906L49.9758 17.7444M49.9758 17.7444L46.8691 14.4088M49.9758 17.7444L54.5 19.5V15L50.5 12" stroke="#3A3088" stroke-width="2" stroke-linecap="round"/>
<path d="M54.5 20L47.5 33.5" stroke="#3A3088" stroke-width="2" stroke-linecap="round"/>
<path d="M15.9768 31.8452L6.57213 16.4585C6.08516 15.8818 5.45818 14.5101 6.84606 13.636C8.23393 12.762 10.5288 11.3295 11.5027 10.7226C12.081 10.4494 13.3837 10.1581 13.968 11.1778C14.1257 11.453 14.6727 12.3621 15.4442 13.636M20.7059 22.2854C21.6998 23.9153 22.6351 25.4478 23.3727 26.6556L20.7059 22.2854ZM20.7059 22.2854L18.4421 23.9242M20.7059 22.2854C19.7949 20.7914 18.8348 19.2156 17.9327 17.7331M17.9327 17.7331L14.3333 20.1003M17.9327 17.7331C17.0023 16.2041 16.1336 14.7744 15.4442 13.636M17.9327 17.7331L15.4442 13.636M15.4442 13.636L13.055 15.3659" stroke="#3A3088" stroke-width="2" stroke-linecap="round"/>
<path d="M35.9694 34.5181H29.2935L24.2637 47.6235H30.2994L25.6354 59.4635L38.0728 43.5563H32.2199L35.9694 34.5181Z" stroke="#3A3088" stroke-width="2" stroke-linecap="round"/>
<path d="M19.3519 46.9657C15.9796 47.1758 9.3992 46.1732 10.0554 40.4819C10.7116 34.7906 14.8859 33.6679 16.891 33.818C16.3137 32.167 15.7973 28.5229 18.3492 27.1541C21.5392 25.4431 26.552 25.4431 27.8279 29.2253" stroke="#3A3088" stroke-width="2" stroke-linecap="round"/>
<path d="M25.1543 27.1339C26.1095 25.389 28.8794 22.1424 32.318 23.1145C35.7566 24.0866 37.0938 26.1991 37.3326 27.1339C38.825 26.3549 42.383 25.3953 44.6754 27.7882C46.9678 30.1812 47.123 33.272 46.914 34.5183" stroke="#3A3088" stroke-width="2" stroke-linecap="round"/>
<path d="M43.3703 35.1967C44.6542 34.2214 48.0101 32.9841 51.1631 35.8367C55.1042 39.4024 52.5067 44.6138 50.5361 45.7109C48.9596 46.5887 39.7875 46.93 35.3984 46.9909" stroke="#3A3088" stroke-width="2" stroke-linecap="round"/>
<path d="M35.5982 3.26784C35.2028 2.87609 33.8099 2.07452 31.4011 2.00219C28.3902 1.91179 25.1968 4.62389 24.7406 8.33041C24.3756 11.2956 27.2649 13.845 28.7552 14.749V16.6475L29.6677 17.8228V20.2636H33.3173V17.8228L34.321 16.6475V14.749C35.6896 14.1765 38.4451 12.0189 38.5181 7.96881" stroke="#3A3088" stroke-width="2" stroke-linecap="round"/>
</g>
<defs>
<clipPath id="clip0_282_38">
<rect width="60" height="60" fill="white"/>
</clipPath>
</defs>
</svg>
