<svg width="60" height="60" viewBox="0 0 60 60" fill="none" xmlns="http://www.w3.org/2000/svg">
<g clip-path="url(#clip0_234_196)">
<path d="M15.4167 27.4798H30H44.5833M15.4167 37.0564H19.5833M27.9167 37.0564H32.0833M40.4167 37.0564H44.5833M15.4167 46.6668H19.5833M27.9167 46.6668H32.0833M40.4167 46.6668H44.5833M15.4167 21.9354L22.4403 12.8628L26.9766 21.9354L34.033 8.52839L39.0734 22.9435L44.5833 17.9032M9.16667 59.1668H50.8333C51.9384 59.1668 52.9982 58.7278 53.7796 57.9464C54.561 57.165 55 56.1052 55 55.0002V5.00016C55 3.89509 54.561 2.83529 53.7796 2.05388C52.9982 1.27248 51.9384 0.833496 50.8333 0.833496H9.16667C8.0616 0.833496 7.00179 1.27248 6.22039 2.05388C5.43899 2.83529 5 3.89509 5 5.00016V55.0002C5 56.1052 5.43899 57.165 6.22039 57.9464C7.00179 58.7278 8.0616 59.1668 9.16667 59.1668Z" stroke="#3A3088" stroke-width="2"/>
</g>
<defs>
<clipPath id="clip0_234_196">
<rect width="60" height="60" fill="white"/>
</clipPath>
</defs>
</svg>
