<svg width="62" height="60" viewBox="0 0 62 60" fill="none" xmlns="http://www.w3.org/2000/svg">
<path d="M20.2537 22.6667H7.26866C5.1791 22.3704 1 23.2 1 28.8889C1 34.5778 1 43.4075 1 47.1113C1 48.7425 1.90474 51.8704 5.37454 52.3751C5.92108 52.4546 6.37313 52.8923 6.37313 53.4446V57.8481C6.37313 58.6988 7.36779 59.161 8.01798 58.6124L15.049 52.6803C15.2294 52.5281 15.4578 52.4446 15.6939 52.4446H35.9254C38.0149 52.5928 42.194 51.7335 42.194 47.1113C42.194 42.4891 42.194 34.5187 42.194 31.1113" stroke="#3A3088" stroke-width="2" stroke-linecap="round"/>
<path d="M15.7754 44.4446L17.2306 40.6668M26.9694 44.4446L25.6261 40.6668M25.6261 40.6668L22.501 31.8778C22.1901 31.0034 20.9592 30.9873 20.6256 31.8534L17.2306 40.6668M25.6261 40.6668H17.2306" stroke="#3A3088" stroke-width="2" stroke-linecap="round"/>
<path d="M40.4035 7.11133V10.5558C40.4035 11.1081 39.9557 11.5558 39.4035 11.5558H37.2691M32.3438 11.5558H37.2691M48.9109 11.5558H37.2691M37.2691 11.5558C36.8214 15.1113 38.3437 22.7558 48.0154 24.8891" stroke="#3A3088" stroke-width="2" stroke-linecap="round"/>
<path d="M43.9625 12C44.3092 15.2874 42.4021 22.4897 32 25" stroke="#3A3088" stroke-width="2" stroke-linecap="round"/>
<path d="M35.0307 1.3335H24.2845C22.9412 1.3335 20.2546 2.48905 20.2546 7.11127C20.2546 11.7335 20.2546 20.2965 20.2546 24.0002C20.1054 26.3705 21.2397 31.1113 26.971 31.1113C32.5361 31.1113 41.3657 31.1113 45.4258 31.1113C45.6536 31.1113 45.8736 31.1891 46.0512 31.3317L53.5534 37.36C54.2078 37.8858 55.1798 37.42 55.1798 36.5805V32.1113C55.1798 31.559 55.6297 31.1154 56.1744 31.0238C58.2062 30.6819 61.0007 29.2559 61.0007 25.3335C61.0007 20.7113 61.0007 10.6668 61.0007 6.22238C61.0007 4.59276 59.6574 1.3335 54.2843 1.3335C48.9111 1.3335 45.7768 1.3335 44.8813 1.3335" stroke="#3A3088" stroke-width="2" stroke-linecap="round"/>
<ellipse cx="39.9546" cy="1.33333" rx="1.34328" ry="1.33333" fill="#3A3088"/>
</svg>
