<svg width="62" height="62" viewBox="0 0 62 62" fill="none" xmlns="http://www.w3.org/2000/svg">
<path d="M13.75 17.8652H25L28.75 21.6161L32.125 9.61328L35.875 23.1164L40.75 12.9891L45.25 22.7413L48.625 17.8652H61" stroke="#3A3088" stroke-width="2" stroke-linecap="round"/>
<path d="M16.7482 9.23866C15.1185 16.7313 28.6232 30.4936 36.9982 36.9951C44.1245 29.4925 61.3934 19.6054 57.6245 9.23836C53.1245 -3.13988 41.8733 1.4869 36.9982 5.86288C30.6232 -2.38904 18.6246 0.612092 16.7482 9.23866Z" stroke="#3A3088" stroke-width="2" stroke-linecap="round"/>
<path d="M7.375 41.1203L12.25 37.3695C13.375 36.6193 16.3 35.344 19 36.2442C21.7 37.1444 29.375 39.1198 32.875 39.995C34.75 40.6201 37.975 42.6956 35.875 45.9964C33.25 50.1223 31.375 50.1223 22.75 46.7465" stroke="#3A3088" stroke-width="2" stroke-linecap="round"/>
<path d="M5.27672 39.1478L1.96601 40.0939C1.43323 40.2462 1.12583 40.8026 1.28058 41.3347L6.71636 60.0245C6.87229 60.5607 7.43706 60.8652 7.97072 60.701L10.9497 59.7842C11.4655 59.6254 11.7623 59.0861 11.6203 58.5654L6.51628 39.8462C6.36975 39.3088 5.81232 38.9947 5.27672 39.1478Z" stroke="#3A3088" stroke-width="2" stroke-linecap="round"/>
<path d="M35.875 44.7416L52 36.1146C53 35.7395 55.3 35.5144 56.5 37.6149C58 40.2405 57.25 41.7408 55.375 43.2412C53.875 44.4415 40.25 52.2433 33.625 55.9942C32.625 56.9944 29.2 58.3947 23.5 55.9942C17.8 53.5936 12.875 55.4941 11.125 56.7443L7 41.1204" stroke="#3A3088" stroke-width="2" stroke-linecap="round"/>
</svg>
