<svg width="59" height="61" viewBox="0 0 59 61" fill="none" xmlns="http://www.w3.org/2000/svg">
<path d="M28.7832 10.0621L29.9394 7.45342M37.7021 10.8075L36.6257 8.19876M36.6257 8.19876L34.1342 2.16068C33.7986 1.3474 32.6521 1.33259 32.2956 2.13693L29.9394 7.45342M36.6257 8.19876L29.9394 7.45342" stroke="#3A3088" stroke-width="2" stroke-linecap="round"/>
<path d="M5.26953 9.6893H8.16248C8.60962 9.6893 9.00188 9.98469 9.12485 10.4146C9.97565 13.3892 11.3506 18.0644 11.3506 17.5154C11.3506 16.9485 14.0379 8.92588 15.5801 4.4004C15.718 3.99566 16.0974 3.72656 16.525 3.72656H22.2966" stroke="#3A3088" stroke-width="2" stroke-linecap="round"/>
<path d="M44.594 11.5527L40.9453 14.9068M40.9453 11.5527L44.594 14.9068" stroke="#3A3088" stroke-width="2" stroke-linecap="round"/>
<path d="M57.6486 30L54 33.354M54 30L57.6486 33.354" stroke="#3A3088" stroke-width="2" stroke-linecap="round"/>
<path d="M4.24324 34.5V40.7081M1 37.7267H7.5" stroke="#3A3088" stroke-width="2" stroke-linecap="round"/>
<path d="M54.7293 5.21729L53.0242 8.61331C52.6904 9.2783 53.1738 10.062 53.9179 10.062H54.6687C55.4272 10.062 55.9096 10.8735 55.5471 11.5398L53.5131 15.2794" stroke="#3A3088" stroke-width="2" stroke-linecap="round"/>
<path d="M18.9693 57.3974C19.6756 58.265 21.8653 60 24.9732 60C28.0812 60 35.9217 60 39.4534 60C42.1611 60 47.6471 58.2154 47.9296 51.0769C48.1629 45.1828 47.7701 37.8693 47.4273 33.4057C47.3591 32.517 46.2171 32.1464 45.5683 32.7575C41.0832 36.9819 32.5959 41.3249 24.0295 34.5961C23.4613 34.1499 22.5899 34.3696 22.2964 35.0298C21.3026 37.2648 19.4949 40.0924 17.1719 40.5999C16.6196 40.7205 16.1183 41.1321 16.0942 41.6969C15.8994 46.2745 15.895 53.9684 17.2034 54.7949" stroke="#3A3088" stroke-width="2" stroke-linecap="round"/>
<path d="M15.6224 47.8957C14.7412 48.1376 12.8279 48.1134 12.2236 46.081C11.4684 43.5405 12.6013 41.3629 16 41" stroke="#3A3088" stroke-width="2" stroke-linecap="round"/>
<path d="M13.7784 41C11.5481 33.3255 9.68408 19.1644 19.5076 22.3612C19.9568 22.5074 20.4592 22.3528 20.7656 21.9932C22.7241 19.6936 27.41 17.0364 34 21.1397" stroke="#3A3088" stroke-width="2" stroke-linecap="round"/>
<path d="M30 26.4428C31.6231 24.9314 35.0084 21.5308 35.5649 20.0194C36.2605 18.1301 41.1298 15.4851 39.7386 23.42C40.6661 21.2789 43.0775 17.2233 45.3035 18.1301C48.086 19.2637 46.6947 23.4202 46.3469 24.1759C45.9991 24.9316 53.6509 15.1074 52.9553 22.6645C52.3988 28.7101 46.9266 32.7405 44.2601 34" stroke="#3A3088" stroke-width="2" stroke-linecap="round"/>
<path d="M50.9721 44.125C50.7631 41.8034 49.8062 40.7068 48.9554 40.2606C48.4663 40.0041 48 40.4477 48 41V47.7508C48 48.3914 48.6016 48.8502 49.1358 48.4967C50.1506 47.8253 51.1839 46.4766 50.9721 44.125Z" stroke="#3A3088" stroke-width="2" stroke-linecap="round"/>
<ellipse cx="25.5" cy="44.5" rx="1.5" ry="2.5" fill="#3A3088"/>
<ellipse cx="39.5" cy="44.5" rx="1.5" ry="2.5" fill="#3A3088"/>
</svg>
